<svg width="44" height="31" viewBox="0 0 44 31" fill="none" xmlns="http://www.w3.org/2000/svg">
<path d="M43.7131 14.3062C42.3054 11.8648 34.5631 -0.38653 21.41 0.00938331C9.24671 0.317316 2.20826 11.007 0.294679 14.3062C0.101632 14.6406 0 15.0199 0 15.406C0 15.7921 0.101632 16.1714 0.294679 16.5058C1.68037 18.9032 9.09275 30.8026 22.0479 30.8026H22.5978C34.7611 30.4947 41.8215 19.805 43.7131 16.5058C43.9062 16.1714 44.0078 15.7921 44.0078 15.406C44.0078 15.0199 43.9062 14.6406 43.7131 14.3062ZM22.4878 26.4036C13.0079 26.6235 6.82724 18.5073 4.89167 15.406C7.09118 11.8648 12.8319 4.62837 21.63 4.40842C31.0659 4.16647 37.2685 12.3047 39.2261 15.406C36.9606 18.9472 31.2859 26.1836 22.4878 26.4036Z" fill="#2477DC"/>
</svg>
