<svg width="168" height="42" viewBox="0 0 168 42" fill="none" xmlns="http://www.w3.org/2000/svg">
<g clip-path="url(#clip0_1922_1447)">
<path d="M114.706 35.1724C114.661 35.1215 114.62 35.0655 114.58 35.0096C114.083 34.338 113.824 33.5443 113.824 32.7099C113.824 30.573 115.558 28.838 117.683 28.838C119.808 28.838 121.542 30.5781 121.542 32.7099C121.542 33.7732 121.096 34.806 120.32 35.5336C119.6 36.2103 118.662 36.5817 117.683 36.5817H111.385H111.182H109.087L107.906 40.1686H117.531C117.582 40.1686 117.632 40.1737 117.683 40.1737C120.569 40.1737 123.221 38.4744 124.438 35.8389C124.894 34.8518 125.123 33.7987 125.123 32.7048C125.123 28.5887 121.786 25.2358 117.678 25.2358C113.57 25.2358 110.234 28.5836 110.234 32.7048C110.234 33.5544 110.376 34.3787 110.649 35.1673H114.696L114.706 35.1724Z" fill="white"/>
<path d="M25.4272 0C13.8851 0 4.49819 9.42265 4.49819 20.9975C4.49819 23.8975 5.08645 26.6653 6.15141 29.1787C6.23762 29.3822 6.32891 29.5857 6.42019 29.7892L16.1519 29.8096C13.1193 26.2125 13.3576 21.1501 13.3576 21.1501C13.3576 14.485 18.7889 8.91387 25.4323 8.91387C27.1616 8.91387 28.8046 9.28019 30.2905 9.94161C23.2111 14.1798 27.7194 21.1043 28.3533 22.0201C26.766 23.1801 25.1888 24.4826 23.6168 25.9326C25.0063 23.2005 25.3156 19.2625 21.2941 14.251C11.5421 20.4531 18.4289 29.1685 19.3468 30.2573C18.5303 31.1578 17.7138 32.0991 16.8923 33.081H8.31683H2.95653L0 41.9797H24.56C24.8491 41.9898 25.1381 42 25.4272 42C33.8353 42 41.1024 36.9987 44.4291 29.8045C45.6665 27.1232 46.3613 24.1417 46.3613 20.9975C46.3562 9.42265 36.9693 0 25.4272 0ZM31.7662 10.7302C34.0432 12.1497 35.8182 14.3121 36.7513 16.8712C35.6356 17.4869 34.4337 18.1839 33.1913 18.9471C32.461 19.3439 31.7358 19.7662 31.0106 20.219C32.7399 18.4281 34.2765 15.3296 31.7662 10.7302ZM19.3417 30.2624C19.3417 30.2624 27.8766 22.244 35.3567 33.193C26.0357 41.303 19.3417 30.2624 19.3417 30.2624ZM28.3584 22.0252C28.3584 22.0252 35.6762 16.3421 40.7981 25.5307C32.8566 31.2596 28.3584 22.0252 28.3584 22.0252Z" fill="white"/>
<path d="M61.3062 7.78953L62.1379 5.08789H51.1637V20.0003H54.0442V14.4291H59.7341L60.5709 11.7733H54.0442V7.78953H61.3062Z" fill="white"/>
<path d="M70.8148 9.45844L70.7996 10.6236C69.9628 9.73319 68.6798 9.22949 67.2142 9.22949C64.1816 9.22949 62.0618 11.4681 62.0618 14.6684C62.0618 17.8686 64.1816 20.1073 67.2142 20.1073C68.6798 20.1073 69.9679 19.6036 70.7996 18.7132L70.8148 19.8783H73.107V9.45336H70.8148V9.45844ZM70.5663 14.6684C70.5663 16.4949 69.3391 17.7669 67.5793 17.7669C65.8196 17.7669 64.5924 16.4949 64.5924 14.6684C64.5924 12.8418 65.8196 11.5699 67.5793 11.5699C69.3391 11.5699 70.5663 12.8418 70.5663 14.6684Z" fill="white"/>
<path d="M83.7262 9.9723C83.0618 9.43808 82.1135 9.13281 81.1297 9.13281C79.9684 9.13281 79.0302 9.56019 78.2746 10.4455L78.2594 9.34141H75.7339V20.0004H78.5079V14.7956C78.5079 12.9589 79.4511 11.8141 80.9623 11.8141C81.4897 11.8141 81.9157 11.9413 82.3874 12.2313C82.4786 12.2924 82.6054 12.3992 82.7778 12.5569L82.9148 12.6841L83.7921 10.0181L83.7262 9.96722V9.9723Z" fill="white"/>
<path d="M97.7177 9.24964C96.1406 9.24964 94.9285 9.81948 94.107 10.9439C93.4224 9.88053 92.2053 9.24964 90.8107 9.24964C89.6037 9.24964 88.6554 9.6414 87.9201 10.4504L87.9049 9.45315H85.6177V19.8781H88.1584V14.1085C88.1584 12.5873 89.127 11.5646 90.5673 11.5646C91.8706 11.5646 92.5856 12.4244 92.5856 13.9813V19.873H95.1212V14.1034C95.1212 12.5822 96.0898 11.5595 97.5301 11.5595C99.1833 11.5595 99.5281 12.8722 99.5281 13.9762V19.8679H102.069V13.788C102.069 10.9795 100.4 9.23438 97.7177 9.23438V9.24964Z" fill="white"/>
<path d="M121.426 7.67247L121.943 5.20996H111.486V19.8832H114.128V14.3121H120.087L120.614 11.8903H114.128V7.67247H121.426Z" fill="white"/>
<path d="M141.756 10.8166C140.818 9.79391 139.419 9.24951 137.704 9.24951C134.484 9.24951 132.324 11.4271 132.324 14.668C132.324 17.909 134.53 20.168 137.953 20.168C139.702 20.168 141.371 19.4913 142.416 18.3567L142.492 18.2702L140.925 16.749L140.844 16.8355C140.25 17.4511 139.135 17.853 138.009 17.853C136.335 17.853 135.174 17.0135 134.941 15.6551H143.029L143.039 15.5482C143.212 13.564 142.766 11.9257 141.751 10.8216L141.756 10.8166ZM140.59 13.625H134.971C135.285 12.2462 136.274 11.4882 137.765 11.4882C139.256 11.4882 140.377 12.3022 140.59 13.625Z" fill="white"/>
<path d="M149.368 13.4419C147.685 13.2536 147.451 12.8517 147.451 12.4447C147.451 11.595 148.744 11.4678 149.515 11.4678C150.53 11.4678 151.458 11.7425 152.34 12.3073L152.518 12.4192L153.268 10.1806L153.187 10.1297C152.107 9.48354 150.834 9.15283 149.414 9.15283C146.675 9.15283 144.84 10.4757 144.84 12.4447C144.84 14.4136 146.371 15.4974 149.15 15.7568C150.616 15.9095 151.214 16.2198 151.214 16.8202C151.214 17.4205 150.535 17.797 149.358 17.797C148.05 17.797 146.752 17.3849 145.889 16.7032L145.707 16.5556L144.936 18.8858L145.012 18.9367C146.295 19.7813 147.7 20.1934 149.297 20.1934C152.021 20.1934 153.851 18.8451 153.851 16.8405C153.851 14.8359 152.472 13.7878 149.378 13.447L149.368 13.4419Z" fill="white"/>
<path d="M161.499 9.24969C160.216 9.24969 159.151 9.66181 158.329 10.4759V5.20996H155.788V19.8832H158.329V14.4037C158.329 12.7349 159.455 11.5748 161.068 11.5748C162.559 11.5748 163.416 12.5619 163.416 14.2816V19.8832H165.956V14.134C165.956 11.1678 164.207 9.24969 161.499 9.24969Z" fill="white"/>
<path d="M51.3564 25.6018H58.7351C60.5455 25.6018 61.8184 26.0546 62.6602 26.8788C63.2333 27.4741 63.5832 28.2373 63.5832 29.2294V29.2701C63.5832 30.9389 62.6399 31.931 61.362 32.4856C63.1116 33.0656 64.2171 34.0526 64.2171 36.0115V36.0522C64.2171 38.5248 62.2038 40.0308 58.7706 40.0308H51.3514V25.5967L51.3564 25.6018ZM59.6631 30.0536C59.6631 29.2497 59.0241 28.8173 57.8527 28.8173H55.241V31.3561H57.7513C58.9633 31.3561 59.6631 30.944 59.6631 30.0994V30.0587V30.0536ZM58.2837 34.1595H55.241V36.8204H58.3243C59.5566 36.8204 60.2362 36.3473 60.2362 35.4976V35.4569C60.2362 34.6734 59.6175 34.1595 58.2837 34.1595Z" fill="white"/>
<path d="M66.4738 25.6021H70.4598V40.0362H66.4738V25.6021Z" fill="white"/>
<path d="M72.468 32.8621V32.8214C72.468 28.6749 75.7998 25.3169 80.2371 25.3169C84.6745 25.3169 87.9657 28.6392 87.9657 32.7807V32.8214C87.9657 36.968 84.6339 40.3311 80.1966 40.3311C75.7592 40.3311 72.468 37.0087 72.468 32.8672V32.8621ZM83.8783 32.8621V32.8214C83.8783 30.7202 82.3975 28.9242 80.1966 28.9242C77.9957 28.9242 76.5351 30.6998 76.5351 32.7807V32.8214C76.5351 34.9074 78.0362 36.7187 80.2371 36.7187C82.4381 36.7187 83.8732 34.9431 83.8732 32.8621H83.8783Z" fill="white"/>
<path d="M87.6107 25.6017H91.8249L94.3352 33.9559L97.1092 25.561H100.542L103.316 33.9559L105.827 25.6017H109.96L105.152 40.1427H101.678L98.8029 31.8343L95.9022 40.1427H92.4284L87.6209 25.6017H87.6107Z" fill="white"/>
<path d="M126.786 25.6021H133.592C135.793 25.6021 137.314 26.177 138.277 27.1488C139.119 27.9933 139.55 29.0872 139.55 30.5118V30.5525C139.55 32.781 138.379 34.2463 136.589 35.0094L140.022 40.0413H135.438L132.537 35.6709H130.767V40.0413H126.781V25.6071L126.786 25.6021ZM133.424 32.5317C134.758 32.5317 135.564 31.8703 135.564 30.8222V30.7815C135.564 29.6265 134.723 29.0516 133.404 29.0516H130.772V32.5368H133.424V32.5317Z" fill="white"/>
<path d="M141.645 25.6021H145.631V31.4581L150.585 25.6021H155.312L149.865 31.7888L155.499 40.0362H150.732L147.096 34.6736L145.636 36.2814V40.0362H141.65V25.6021H141.645Z" fill="white"/>
<path d="M157.249 35.0194C158.689 36.154 160.662 36.968 162.33 36.968C163.421 36.968 163.994 36.5966 163.994 35.9759V35.9352C163.994 35.3145 163.522 35.0092 161.549 34.531C158.486 33.8289 156.123 32.9639 156.123 30.013V29.9723C156.123 27.291 158.243 25.3525 161.691 25.3525C163.862 25.3525 165.611 25.8715 167.067 26.8687L166.002 30.074C164.557 28.9395 162.858 28.6698 161.585 28.6698C160.616 28.6698 160.145 29.0616 160.145 29.5958V29.6365C160.145 30.2979 160.637 30.5879 162.65 31.0407C165.941 31.7632 167.995 32.8367 167.995 35.5384V35.5791C167.995 38.53 165.672 40.2802 162.178 40.2802C159.947 40.2802 157.776 39.6188 156.083 38.4028" fill="white"/>
<path d="M131.36 9.85512C130.696 9.3209 129.748 9.01562 128.764 9.01562C127.603 9.01562 126.664 9.443 125.909 10.3283L125.894 9.22423H123.368V19.8832H126.142V14.6784C126.142 12.8417 127.085 11.6969 128.596 11.6969C129.124 11.6969 129.55 11.8241 130.021 12.1141C130.113 12.1752 130.24 12.282 130.412 12.4397L130.549 12.5669L131.426 9.90091L131.36 9.85003V9.85512Z" fill="white"/>
</g>
<defs>
<clipPath id="clip0_1922_1447">
<rect width="168" height="42" fill="white"/>
</clipPath>
</defs>
</svg>
