<svg width="130" height="36" viewBox="0 0 130 36" fill="none" xmlns="http://www.w3.org/2000/svg">
<g clip-path="url(#clip0_1956_569)">
<path d="M129.256 27.2436H120.923V35.6328H112.534V27.2436H104.258V19.5606H112.534V11.3974H120.923V19.5606H129.256V27.2436Z" fill="#010101"/>
<path d="M0 11.0867C2.47156 12.2731 5.11259 12.146 7.88074 11.0867V35.534L0 35.5198V11.0867Z" fill="#010101"/>
<path d="M3.898 0H3.98274C6.12946 0 7.88074 1.73715 7.88074 3.898C7.88074 6.04472 6.14358 7.796 3.98274 7.796H3.898C1.73715 7.796 0 6.04472 0 3.898C0 1.73715 1.73715 0 3.898 0Z" fill="#010101"/>
<path d="M38.0195 35.5198H29.362L27.3 32.1019L24.9415 28.1192L22.5829 32.1019L20.422 35.5198H11.9058L19.8854 23.4586L12.5272 11.7787H21.0435L23.2467 15.3801L24.9697 18.6426L26.7916 15.3801L28.9948 11.7787H37.3134L30.0117 23.4586L37.9913 35.5198H38.0195Z" fill="#010101"/>
<path d="M65.4196 11.7787V35.5198H58.8806L58.4004 32.681C56.4372 34.8419 53.7397 36 50.5196 36C43.8394 36 39.1787 30.958 39.1787 23.6422C39.1787 16.3264 43.8394 11.2844 50.5196 11.2844C53.7397 11.2844 56.4796 12.4425 58.4004 14.5469L58.8806 11.7646H65.4196V11.7787ZM57.9625 23.6563C57.9625 20.0973 55.6605 17.654 52.285 17.654C48.9096 17.654 46.664 20.1114 46.664 23.6563C46.664 27.2013 48.9661 29.6587 52.285 29.6587C55.604 29.6587 57.9625 27.2013 57.9625 23.6563Z" fill="#010101"/>
<path d="M95.7415 22.1169V35.5339H88.1998V22.5547C88.1998 19.4758 86.5615 17.6539 83.8781 17.6539C80.9404 17.6539 78.9773 19.8571 78.9773 23.0349V35.5339H71.4355V11.7787H77.9746L78.4548 14.561C80.2343 12.4425 82.9318 11.242 86.0954 11.242C91.9565 11.242 95.7557 15.2812 95.7557 22.1027L95.7415 22.1169Z" fill="#010101"/>
<path d="M95.1494 11.8528V6.42683H93.1441V4.97203H98.7274V6.42683H96.7221V11.8528H95.1494ZM99.5396 11.8528V4.97203H101.28L103.108 7.68504L104.946 4.97203H106.686V11.8528H105.103V7.42946L103.118 10.3391L101.122 7.42946V11.8528H99.5396Z" fill="#010101"/>
</g>
<defs>
<clipPath id="clip0_1956_569">
<rect width="129.255" height="36" fill="white"/>
</clipPath>
</defs>
</svg>
