<svg width="168" height="42" viewBox="0 0 168 42" fill="none" xmlns="http://www.w3.org/2000/svg">
<g clip-path="url(#clip0_1962_626)">
<path d="M114.706 35.1721C114.661 35.1212 114.62 35.0653 114.58 35.0093C114.083 34.3377 113.824 33.544 113.824 32.7096C113.824 30.5727 115.558 28.8378 117.683 28.8378C119.808 28.8378 121.542 30.5778 121.542 32.7096C121.542 33.773 121.096 34.8058 120.32 35.5334C119.6 36.21 118.662 36.5814 117.683 36.5814H111.385H111.182H109.087L107.906 40.1684H117.531C117.582 40.1684 117.632 40.1735 117.683 40.1735C120.569 40.1735 123.221 38.4741 124.438 35.8386C124.894 34.8516 125.123 33.7984 125.123 32.7045C125.123 28.5885 121.786 25.2356 117.678 25.2356C113.57 25.2356 110.233 28.5834 110.233 32.7045C110.233 33.5542 110.375 34.3784 110.649 35.167H114.696L114.706 35.1721Z" fill="#181818"/>
<path d="M25.4272 0C13.8851 0 4.49819 9.42265 4.49819 20.9975C4.49819 23.8975 5.08645 26.6653 6.15141 29.1787C6.23762 29.3822 6.32891 29.5857 6.42019 29.7892L16.1519 29.8096C13.1193 26.2125 13.3576 21.1501 13.3576 21.1501C13.3576 14.485 18.7889 8.91387 25.4323 8.91387C27.1616 8.91387 28.8046 9.28019 30.2905 9.94161C23.2111 14.1798 27.7194 21.1043 28.3533 22.0201C26.766 23.1801 25.1888 24.4826 23.6168 25.9326C25.0063 23.2005 25.3156 19.2625 21.2941 14.251C11.5421 20.4531 18.4289 29.1685 19.3468 30.2573C18.5303 31.1578 17.7138 32.0991 16.8923 33.081H8.31683H2.95653L0 41.9797H24.56C24.8491 41.9898 25.1381 42 25.4272 42C33.8353 42 41.1024 36.9987 44.4291 29.8045C45.6665 27.1232 46.3613 24.1417 46.3613 20.9975C46.3562 9.42265 36.9693 0 25.4272 0ZM31.7662 10.7302C34.0432 12.1497 35.8182 14.3121 36.7513 16.8712C35.6356 17.4869 34.4337 18.1839 33.1913 18.9471C32.461 19.3439 31.7358 19.7662 31.0106 20.219C32.7399 18.4281 34.2765 15.3296 31.7662 10.7302ZM19.3417 30.2624C19.3417 30.2624 27.8766 22.244 35.3567 33.193C26.0357 41.303 19.3417 30.2624 19.3417 30.2624ZM28.3584 22.0252C28.3584 22.0252 35.6762 16.3421 40.7981 25.5307C32.8566 31.2596 28.3584 22.0252 28.3584 22.0252Z" fill="#11A526"/>
<path d="M61.3063 7.78946L62.138 5.08783H51.1638V20.0002H54.0443V14.4291H59.7342L60.571 11.7732H54.0443V7.78946H61.3063Z" fill="#181818"/>
<path d="M70.8147 9.45826L70.7995 10.6234C69.9628 9.733 68.6797 9.22931 67.2141 9.22931C64.1815 9.22931 62.0618 11.468 62.0618 14.6682C62.0618 17.8684 64.1815 20.1071 67.2141 20.1071C68.6797 20.1071 69.9678 19.6034 70.7995 18.713L70.8147 19.8781H73.1069V9.45317H70.8147V9.45826ZM70.5662 14.6682C70.5662 16.4947 69.339 17.7667 67.5793 17.7667C65.8196 17.7667 64.5923 16.4947 64.5923 14.6682C64.5923 12.8417 65.8196 11.5697 67.5793 11.5697C69.339 11.5697 70.5662 12.8417 70.5662 14.6682Z" fill="#181818"/>
<path d="M83.7262 9.97212C83.0618 9.4379 82.1135 9.13263 81.1297 9.13263C79.9684 9.13263 79.0302 9.56001 78.2746 10.4453L78.2594 9.34123H75.7339V20.0002H78.5079V14.7954C78.5079 12.9587 79.4511 11.8139 80.9623 11.8139C81.4897 11.8139 81.9157 11.9411 82.3874 12.2311C82.4786 12.2922 82.6054 12.399 82.7778 12.5567L82.9148 12.6839L83.7921 10.0179L83.7262 9.96703V9.97212Z" fill="#181818"/>
<path d="M97.7177 9.24964C96.1405 9.24964 94.9285 9.81948 94.1069 10.9439C93.4223 9.88053 92.2052 9.24964 90.8106 9.24964C89.6037 9.24964 88.6553 9.6414 87.92 10.4504L87.9048 9.45315H85.6177V19.8781H88.1584V14.1085C88.1584 12.5873 89.127 11.5646 90.5672 11.5646C91.8705 11.5646 92.5856 12.4244 92.5856 13.9813V19.873H95.1212V14.1034C95.1212 12.5822 96.0898 11.5595 97.53 11.5595C99.1832 11.5595 99.5281 12.8722 99.5281 13.9762V19.8679H102.069V13.788C102.069 10.9795 100.4 9.23438 97.7177 9.23438V9.24964Z" fill="#181818"/>
<path d="M121.426 7.67247L121.943 5.20996H111.486V19.8832H114.128V14.3121H120.087L120.614 11.8903H114.128V7.67247H121.426Z" fill="#181818"/>
<path d="M141.756 10.8167C140.818 9.79409 139.418 9.24969 137.704 9.24969C134.484 9.24969 132.324 11.4273 132.324 14.6682C132.324 17.9092 134.53 20.1682 137.953 20.1682C139.702 20.1682 141.371 19.4915 142.415 18.3569L142.492 18.2704L140.925 16.7491L140.843 16.8356C140.25 17.4513 139.134 17.8532 138.009 17.8532C136.335 17.8532 135.174 17.0137 134.94 15.6553H143.029L143.039 15.5484C143.212 13.5642 142.765 11.9259 141.751 10.8218L141.756 10.8167ZM140.59 13.6252H134.971C135.285 12.2464 136.274 11.4883 137.765 11.4883C139.256 11.4883 140.377 12.3024 140.59 13.6252Z" fill="#181818"/>
<path d="M149.368 13.4421C147.685 13.2538 147.451 12.8519 147.451 12.4448C147.451 11.5952 148.744 11.468 149.515 11.468C150.53 11.468 151.458 11.7427 152.34 12.3075L152.517 12.4194L153.268 10.1808L153.187 10.1299C152.107 9.48372 150.834 9.15302 149.414 9.15302C146.675 9.15302 144.84 10.4758 144.84 12.4448C144.84 14.4138 146.371 15.4975 149.15 15.757C150.616 15.9096 151.214 16.22 151.214 16.8204C151.214 17.4207 150.535 17.7972 149.358 17.7972C148.05 17.7972 146.751 17.3851 145.889 16.7033L145.707 16.5558L144.936 18.886L145.012 18.9369C146.295 19.7815 147.7 20.1936 149.297 20.1936C152.02 20.1936 153.851 18.8453 153.851 16.8407C153.851 14.8361 152.472 13.788 149.378 13.4471L149.368 13.4421Z" fill="#181818"/>
<path d="M161.499 9.24969C160.216 9.24969 159.151 9.66181 158.329 10.4759V5.20996H155.789V19.8832H158.329V14.4037C158.329 12.7349 159.455 11.5748 161.068 11.5748C162.559 11.5748 163.416 12.5619 163.416 14.2816V19.8832H165.956V14.134C165.956 11.1678 164.207 9.24969 161.499 9.24969Z" fill="#181818"/>
<path d="M51.3564 25.6019H58.735C60.5455 25.6019 61.8184 26.0548 62.6602 26.879C63.2332 27.4743 63.5831 28.2374 63.5831 29.2296V29.2703C63.5831 30.9391 62.6399 31.9312 61.3619 32.4858C63.1115 33.0658 64.217 34.0528 64.217 36.0116V36.0523C64.217 38.525 62.2038 40.031 58.7705 40.031H51.3513V25.5969L51.3564 25.6019ZM59.6631 30.0538C59.6631 29.2499 59.0241 28.8175 57.8526 28.8175H55.241V31.3563H57.7512C58.9632 31.3563 59.6631 30.9442 59.6631 30.0996V30.0589V30.0538ZM58.2837 34.1597H55.241V36.8206H58.3243C59.5566 36.8206 60.2361 36.3474 60.2361 35.4978V35.4571C60.2361 34.6735 59.6174 34.1597 58.2837 34.1597Z" fill="#181818"/>
<path d="M66.4739 25.6019H70.4599V40.0361H66.4739V25.6019Z" fill="#181818"/>
<path d="M72.468 32.8623V32.8216C72.468 28.675 75.7998 25.317 80.2372 25.317C84.6745 25.317 87.9657 28.6394 87.9657 32.7809V32.8216C87.9657 36.9681 84.6339 40.3312 80.1966 40.3312C75.7593 40.3312 72.468 37.0088 72.468 32.8673V32.8623ZM83.8783 32.8623V32.8216C83.8783 30.7203 82.3975 28.9243 80.1966 28.9243C77.9957 28.9243 76.5352 30.6999 76.5352 32.7809V32.8216C76.5352 34.9076 78.0362 36.7188 80.2372 36.7188C82.4381 36.7188 83.8732 34.9432 83.8732 32.8623H83.8783Z" fill="#181818"/>
<path d="M87.6108 25.6019H91.825L94.3353 33.9561L97.1093 25.5612H100.542L103.316 33.9561L105.827 25.6019H109.96L105.152 40.1429H101.678L98.8031 31.8345L95.9023 40.1429H92.4285L87.621 25.6019H87.6108Z" fill="#181818"/>
<path d="M126.786 25.6019H133.592C135.793 25.6019 137.314 26.1769 138.278 27.1486C139.119 27.9932 139.55 29.0871 139.55 30.5117V30.5524C139.55 32.7809 138.379 34.2461 136.589 35.0093L140.022 40.0412H135.438L132.537 35.6707H130.767V40.0412H126.781V25.607L126.786 25.6019ZM133.424 32.5315C134.758 32.5315 135.564 31.8701 135.564 30.822V30.7813C135.564 29.6264 134.723 29.0515 133.404 29.0515H130.772V32.5366H133.424V32.5315Z" fill="#181818"/>
<path d="M141.645 25.6019H145.631V31.458L150.585 25.6019H155.312L149.865 31.7887L155.499 40.0361H150.732L147.096 34.6735L145.636 36.2813V40.0361H141.65V25.6019H141.645Z" fill="#181818"/>
<path d="M157.249 35.0195C158.689 36.1541 160.662 36.9682 162.33 36.9682C163.421 36.9682 163.994 36.5968 163.994 35.976V35.9353C163.994 35.3146 163.522 35.0094 161.549 34.5311C158.486 33.829 156.123 32.964 156.123 30.0131V29.9724C156.123 27.2911 158.243 25.3527 161.691 25.3527C163.862 25.3527 165.611 25.8716 167.067 26.8688L166.002 30.0742C164.557 28.9396 162.858 28.6699 161.585 28.6699C160.616 28.6699 160.145 29.0617 160.145 29.5959V29.6366C160.145 30.298 160.636 30.588 162.65 31.0408C165.941 31.7633 167.995 32.8369 167.995 35.5385V35.5792C167.995 38.5301 165.672 40.2803 162.178 40.2803C159.947 40.2803 157.776 39.6189 156.083 38.4029" fill="#181818"/>
<path d="M131.36 9.85512C130.696 9.3209 129.748 9.01562 128.764 9.01562C127.602 9.01562 126.664 9.443 125.909 10.3283L125.893 9.22423H123.368V19.8832H126.142V14.6784C126.142 12.8417 127.085 11.6969 128.596 11.6969C129.124 11.6969 129.55 11.8241 130.021 12.1141C130.113 12.1752 130.239 12.282 130.412 12.4397L130.549 12.5669L131.426 9.90091L131.36 9.85003V9.85512Z" fill="#181818"/>
</g>
<defs>
<clipPath id="clip0_1962_626">
<rect width="168" height="42" fill="white"/>
</clipPath>
</defs>
</svg>
