<svg width="48" height="48" viewBox="0 0 48 48" fill="none" xmlns="http://www.w3.org/2000/svg">
<path d="M34.55 36.25L33.7 35.4C33.4 35.1 33.042 34.95 32.626 34.95C32.21 34.95 31.8513 35.1 31.55 35.4C31.2487 35.7 31.0987 36.05 31.1 36.45C31.1013 36.85 31.2513 37.2 31.55 37.5L33.5 39.45C33.8 39.75 34.15 39.9 34.55 39.9C34.95 39.9 35.3 39.75 35.6 39.45L40.45 34.7C40.75 34.4 40.9 34.0413 40.9 33.624C40.9 33.2067 40.75 32.8487 40.45 32.55C40.15 32.2513 39.7913 32.1013 39.374 32.1C38.9567 32.0987 38.5987 32.2487 38.3 32.55L34.55 36.25ZM14 18H34C34.5667 18 35.042 17.808 35.426 17.424C35.81 17.04 36.0013 16.5653 36 16C35.9987 15.4347 35.8067 14.96 35.424 14.576C35.0413 14.192 34.5667 14 34 14H14C13.4333 14 12.9587 14.192 12.576 14.576C12.1933 14.96 12.0013 15.4347 12 16C11.9987 16.5653 12.1907 17.0407 12.576 17.426C12.9613 17.8113 13.436 18.0027 14 18ZM36 46C33.2333 46 30.8753 45.0247 28.926 43.074C26.9767 41.1233 26.0013 38.7653 26 36C25.9987 33.2347 26.974 30.8767 28.926 28.926C30.878 26.9753 33.236 26 36 26C38.764 26 41.1227 26.9753 43.076 28.926C45.0293 30.8767 46.004 33.2347 46 36C45.996 38.7653 45.0207 41.124 43.074 43.076C41.1273 45.028 38.7693 46.0027 36 46ZM6 10C6 8.9 6.392 7.95867 7.176 7.176C7.96 6.39333 8.90133 6.00133 10 6H38C39.1 6 40.042 6.392 40.826 7.176C41.61 7.96 42.0013 8.90133 42 10V20.75C42 21.3167 41.808 21.792 41.424 22.176C41.04 22.56 40.5653 22.7513 40 22.75C39.4347 22.7487 38.96 22.5567 38.576 22.174C38.192 21.7913 38 21.3167 38 20.75V10H10V38.1H22.15C22.2167 38.6 22.3167 39.1 22.45 39.6C22.5833 40.1 22.7333 40.5833 22.9 41.05C23.0667 41.4167 23 41.7087 22.7 41.926C22.4 42.1433 22.1167 42.118 21.85 41.85L21.7 41.7C21.5 41.5 21.2667 41.4 21 41.4C20.7333 41.4 20.5 41.5 20.3 41.7L18.7 43.3C18.5 43.5 18.2667 43.6 18 43.6C17.7333 43.6 17.5 43.5 17.3 43.3L15.7 41.7C15.5 41.5 15.2667 41.4 15 41.4C14.7333 41.4 14.5 41.5 14.3 41.7L12.7 43.3C12.5 43.5 12.2667 43.6 12 43.6C11.7333 43.6 11.5 43.5 11.3 43.3L9.7 41.7C9.5 41.5 9.26667 41.4 9 41.4C8.73333 41.4 8.5 41.5 8.3 41.7L6 44V10ZM14 34H20.75C21.3167 34 21.792 33.808 22.176 33.424C22.56 33.04 22.7513 32.5653 22.75 32C22.7487 31.4347 22.5567 30.96 22.174 30.576C21.7913 30.192 21.3167 30 20.75 30H14C13.4333 30 12.9587 30.192 12.576 30.576C12.1933 30.96 12.0013 31.4347 12 32C11.9987 32.5653 12.1907 33.0407 12.576 33.426C12.9613 33.8113 13.436 34.0027 14 34ZM14 26H27.1C27.6667 26 28.142 25.808 28.526 25.424C28.91 25.04 29.1013 24.5653 29.1 24C29.0987 23.4347 28.9067 22.96 28.524 22.576C28.1413 22.192 27.6667 22 27.1 22H14C13.4333 22 12.9587 22.192 12.576 22.576C12.1933 22.96 12.0013 23.4347 12 24C11.9987 24.5653 12.1907 25.0407 12.576 25.426C12.9613 25.8113 13.436 26.0027 14 26Z" fill="#2477DC"/>
</svg>
