<svg width="36" height="36" viewBox="0 0 36 36" fill="none" xmlns="http://www.w3.org/2000/svg">
<path d="M8.382 32.1195C7.794 31.5315 7.5 30.825 7.5 30C7.5 29.175 7.794 28.469 8.382 27.882C8.97 27.295 9.676 27.001 10.5 27C11.324 26.999 12.0305 27.293 12.6195 27.882C13.2085 28.471 13.502 29.177 13.5 30C13.498 30.823 13.2045 31.5295 12.6195 32.1195C12.0345 32.7095 11.328 33.003 10.5 33C9.672 32.997 8.966 32.7035 8.382 32.1195ZM23.382 32.1195C22.794 31.5315 22.5 30.825 22.5 30C22.5 29.175 22.794 28.469 23.382 27.882C23.97 27.295 24.676 27.001 25.5 27C26.324 26.999 27.0305 27.293 27.6195 27.882C28.2085 28.471 28.502 29.177 28.5 30C28.498 30.823 28.2045 31.5295 27.6195 32.1195C27.0345 32.7095 26.328 33.003 25.5 33C24.672 32.997 23.966 32.7035 23.382 32.1195ZM9.225 9L12.825 16.5H23.325L27.45 9H9.225ZM7.8 6H29.925C30.5 6 30.9375 6.2565 31.2375 6.7695C31.5375 7.2825 31.55 7.801 31.275 8.325L25.95 17.925C25.675 18.425 25.3065 18.8125 24.8445 19.0875C24.3825 19.3625 23.876 19.5 23.325 19.5H12.15L10.5 22.5H28.5V25.5H10.5C9.375 25.5 8.525 25.0065 7.95 24.0195C7.375 23.0325 7.35 22.051 7.875 21.075L9.9 17.4L4.5 6H1.5V3H6.375L7.8 6Z" fill="white"/>
</svg>
