<svg width="48" height="48" viewBox="0 0 48 48" fill="none" xmlns="http://www.w3.org/2000/svg">
<path d="M45.7131 24.2977C44.3054 21.8562 36.5631 9.60493 23.41 10.0008C11.2467 10.3088 4.20826 20.9984 2.29468 24.2977C2.10163 24.6321 2 25.0114 2 25.3975C2 25.7835 2.10163 26.1628 2.29468 26.4972C3.68037 28.8947 11.0927 40.7941 24.0479 40.7941H24.5978C36.7611 40.4861 43.8215 29.7965 45.7131 26.4972C45.9062 26.1628 46.0078 25.7835 46.0078 25.3975C46.0078 25.0114 45.9062 24.6321 45.7131 24.2977ZM24.4878 36.395C15.0079 36.615 8.82724 28.4988 6.89167 25.3975C9.09118 21.8562 14.8319 14.6198 23.63 14.3999C33.0659 14.1579 39.2685 22.2961 41.2261 25.3975C38.9606 28.9387 33.2859 36.1751 24.4878 36.395Z" fill="#2477DC"/>
<path d="M24.004 17.6992C22.4814 17.6992 20.993 18.1507 19.727 18.9966C18.461 19.8425 17.4743 21.0448 16.8917 22.4515C16.309 23.8582 16.1565 25.4061 16.4536 26.8994C16.7506 28.3927 17.4838 29.7644 18.5605 30.8411C19.6371 31.9177 21.0088 32.6509 22.5021 32.9479C23.9954 33.245 25.5433 33.0925 26.95 32.5098C28.3567 31.9272 29.559 30.9405 30.4049 29.6745C31.2508 28.4085 31.7023 26.9201 31.7023 25.3975C31.7023 23.3558 30.8912 21.3977 29.4475 19.954C28.0038 18.5103 26.0457 17.6992 24.004 17.6992ZM24.004 28.6968C23.3514 28.6968 22.7136 28.5033 22.171 28.1408C21.6284 27.7782 21.2056 27.263 20.9558 26.6601C20.7061 26.0572 20.6408 25.3939 20.7681 24.7539C20.8954 24.1139 21.2096 23.526 21.671 23.0646C22.1324 22.6032 22.7203 22.2889 23.3603 22.1616C24.0003 22.0343 24.6637 22.0997 25.2666 22.3494C25.8694 22.5991 26.3847 23.022 26.7472 23.5645C27.1098 24.1071 27.3032 24.745 27.3032 25.3975C27.3032 26.2725 26.9556 27.1117 26.3369 27.7305C25.7182 28.3492 24.879 28.6968 24.004 28.6968Z" fill="#2477DC"/>
</svg>
