<svg width="48" height="48" viewBox="0 0 48 48" fill="none" xmlns="http://www.w3.org/2000/svg">
<path d="M30.031 30.3919C30.8309 30.3919 31.598 30.0741 32.1636 29.5085C32.7293 28.9429 33.047 28.1758 33.047 27.3759C33.047 26.576 32.7293 25.8088 32.1636 25.2432C31.598 24.6776 30.8309 24.3599 30.031 24.3599C29.2311 24.3599 28.464 24.6776 27.8984 25.2432C27.3328 25.8088 27.015 26.576 27.015 27.3759C27.015 28.1758 27.3328 28.9429 27.8984 29.5085C28.464 30.0741 29.2311 30.3919 30.031 30.3919Z" fill="#2477DC"/>
<path fill-rule="evenodd" clip-rule="evenodd" d="M30.0321 19.8359C28.0323 19.8359 26.1145 20.6303 24.7005 22.0444C23.2865 23.4584 22.4921 25.3762 22.4921 27.3759C22.4921 29.3757 23.2865 31.2935 24.7005 32.7075C26.1145 34.1215 28.0323 34.9159 30.0321 34.9159C32.0318 34.9159 33.9496 34.1215 35.3637 32.7075C36.7777 31.2935 37.5721 29.3757 37.5721 27.3759C37.5721 25.3762 36.7777 23.4584 35.3637 22.0444C33.9496 20.6303 32.0318 19.8359 30.0321 19.8359ZM25.5081 27.3759C25.5081 26.1761 25.9847 25.0254 26.8331 24.177C27.6815 23.3286 28.8322 22.8519 30.0321 22.8519C31.2319 22.8519 32.3826 23.3286 33.231 24.177C34.0794 25.0254 34.5561 26.1761 34.5561 27.3759C34.5561 28.5758 34.0794 29.7265 33.231 30.5749C32.3826 31.4233 31.2319 31.8999 30.0321 31.8999C28.8322 31.8999 27.6815 31.4233 26.8331 30.5749C25.9847 29.7265 25.5081 28.5758 25.5081 27.3759Z" fill="#2477DC"/>
<path d="M22.0951 10.5558C20.5501 10.5727 19.0235 10.894 17.6027 11.5013C16.1818 12.1085 14.8946 12.9898 13.8145 14.0947C12.7345 15.1997 11.8827 16.5067 11.308 17.941C10.7333 19.3752 10.4469 20.9087 10.4651 22.4538C10.4696 22.8537 10.6328 23.2355 10.9188 23.5151C11.2048 23.7947 11.5902 23.9493 11.9901 23.9448C12.3901 23.9403 12.7718 23.7771 13.0515 23.4911C13.3311 23.2051 13.4856 22.8197 13.4811 22.4198C13.4611 20.5598 14.0211 18.8318 14.9931 17.4038L17.3391 19.7518C17.6218 20.035 18.0055 20.1944 18.4057 20.1947C18.6039 20.1949 18.8001 20.1561 18.9833 20.0804C19.1664 20.0048 19.3329 19.8938 19.4731 19.7538C19.6134 19.6138 19.7247 19.4475 19.8007 19.2645C19.8767 19.0815 19.9159 18.8853 19.9161 18.6872C19.9163 18.489 19.8774 18.2928 19.8018 18.1096C19.7261 17.9265 19.6151 17.76 19.4751 17.6198L17.0931 15.2378C18.558 14.1714 20.3193 13.5889 22.1311 13.5718C22.5311 13.567 22.9127 13.4035 23.1922 13.1174C23.4716 12.8312 23.6259 12.4457 23.6211 12.0458C23.6163 11.6458 23.4529 11.2642 23.1667 10.9847C22.8805 10.7053 22.4951 10.551 22.0951 10.5558Z" fill="#2477DC"/>
<path fill-rule="evenodd" clip-rule="evenodd" d="M11.8592 29.6562C11.8808 28.7622 12.2511 27.912 12.8911 27.2874C13.531 26.6627 14.3899 26.313 15.2842 26.313C16.1785 26.313 17.0373 26.6627 17.6773 27.2874C18.3172 27.912 18.6876 28.7622 18.7092 29.6562V31.7762C18.7092 32.6848 18.3482 33.5563 17.7057 34.1988C17.0632 34.8413 16.1918 35.2022 15.2832 35.2022C14.3745 35.2022 13.5031 34.8413 12.8606 34.1988C12.2181 33.5563 11.8572 32.6848 11.8572 31.7762L11.8592 29.6562ZM15.6932 29.6562V31.7762C15.6932 31.885 15.65 31.9892 15.5731 32.0661C15.4962 32.143 15.3919 32.1862 15.2832 32.1862C15.1744 32.1862 15.0702 32.143 14.9933 32.0661C14.9164 31.9892 14.8732 31.885 14.8732 31.7762V29.6562C14.8732 29.5475 14.9164 29.4432 14.9933 29.3663C15.0702 29.2894 15.1744 29.2462 15.2832 29.2462C15.3919 29.2462 15.4962 29.2894 15.5731 29.3663C15.65 29.4432 15.6932 29.5475 15.6932 29.6562Z" fill="#2477DC"/>
<path fill-rule="evenodd" clip-rule="evenodd" d="M23.9994 4C12.9534 4 3.99939 12.954 3.99939 24C3.99939 35.046 12.9534 44 23.9994 44C35.0454 44 43.9994 35.046 43.9994 24C43.9994 12.954 35.0454 4 23.9994 4ZM7.01539 24C7.01539 19.4956 8.80477 15.1756 11.9899 11.9905C15.175 8.80538 19.495 7.016 23.9994 7.016C28.5038 7.016 32.8238 8.80538 36.0089 11.9905C39.194 15.1756 40.9834 19.4956 40.9834 24C40.9834 28.5044 39.194 32.8244 36.0089 36.0095C32.8238 39.1946 28.5038 40.984 23.9994 40.984C19.495 40.984 15.175 39.1946 11.9899 36.0095C8.80477 32.8244 7.01539 28.5044 7.01539 24Z" fill="#2477DC"/>
</svg>
