<svg width="48" height="48" viewBox="0 0 48 48" fill="none" xmlns="http://www.w3.org/2000/svg">
<path d="M16 34V30H20.35C20.1833 30.6667 20.0753 31.3333 20.026 32C19.9767 32.6667 19.9847 33.3333 20.05 34H16ZM16 44C13.2333 44 10.8753 43.0247 8.926 41.074C6.97667 39.1233 6.00133 36.7653 6 34V16H2V4H30V16H26V22.05C25.2 22.55 24.4667 23.1333 23.8 23.8C23.1333 24.4667 22.55 25.2 22.05 26H16V22H22V16H10V34C10 35.6667 10.5833 37.0833 11.75 38.25C12.9167 39.4167 14.3333 40 16 40C17 40 17.9087 39.7833 18.726 39.35C19.5433 38.9167 20.2347 38.3167 20.8 37.55C21.0667 38.2167 21.3667 38.85 21.7 39.45C22.0333 40.05 22.4333 40.6333 22.9 41.2C22 42.0667 20.9667 42.75 19.8 43.25C18.6333 43.75 17.3667 44 16 44ZM6 12H26V8H6V12ZM33 38C34.4 38 35.5833 37.5167 36.55 36.55C37.5167 35.5833 38 34.4 38 33C38 31.6 37.5167 30.4167 36.55 29.45C35.5833 28.4833 34.4 28 33 28C31.6 28 30.4167 28.4833 29.45 29.45C28.4833 30.4167 28 31.6 28 33C28 34.4 28.4833 35.5833 29.45 36.55C30.4167 37.5167 31.6 38 33 38ZM43.2 46L37.8 40.6C37.0667 41.0667 36.3 41.4167 35.5 41.65C34.7 41.8833 33.8667 42 33 42C30.5 42 28.3753 41.1253 26.626 39.376C24.8767 37.6267 24.0013 35.5013 24 33C23.9987 30.4987 24.874 28.374 26.626 26.626C28.378 24.878 30.5027 24.0027 33 24C35.4973 23.9973 37.6227 24.8727 39.376 26.626C41.1293 28.3793 42.004 30.504 42 33C42 33.8667 41.8833 34.7 41.65 35.5C41.4167 36.3 41.0667 37.0667 40.6 37.8L46 43.2L43.2 46Z" fill="#2477DC"/>
</svg>
